<svg width="2017" height="2035" xmlns="http://www.w3.org/2000/svg" xmlns:xlink="http://www.w3.org/1999/xlink" overflow="hidden"><defs><clipPath id="clip0"><rect x="1191" y="220" width="2017" height="2035"/></clipPath></defs><g clip-path="url(#clip0)" transform="translate(-1191 -220)"><path d="M2033.41 986.765 2033.41 1085.41 2091.43 1085.41C2129.04 1085.41 2152.53 1083.82 2161.89 1080.64 2171.25 1077.46 2178.58 1071.98 2183.88 1064.2 2189.18 1056.42 2191.83 1046.7 2191.83 1035.03 2191.83 1021.95 2188.34 1011.38 2181.36 1003.34 2174.39 995.295 2164.54 990.212 2151.83 988.09 2145.47 987.207 2126.4 986.765 2094.61 986.765ZM1955 921 2120.04 921C2161.54 921 2191.69 924.491 2210.5 931.474 2229.31 938.457 2244.37 950.877 2255.67 968.732 2266.97 986.588 2272.62 1007.01 2272.62 1029.99 2272.62 1059.16 2264.06 1083.25 2246.93 1102.25 2229.8 1121.26 2204.19 1133.23 2170.1 1138.18 2187.06 1148.08 2201.05 1158.96 2212.09 1170.8 2223.13 1182.64 2238.01 1203.68 2256.73 1233.91L2287.35 1282.89 2359.22 1165.25 2450.08 1165.25 2329.28 1354.05 2462 1554 2367.43 1554 2281.33 1419.55 2194.97 1554 2100.93 1554 2233.65 1351.14 2128.14 1188.06 2119.11 1176.01C2116.46 1172.65 2114.21 1169.98 2112.35 1168.02 2104.94 1160.15 2097.08 1154.76 2088.78 1151.84 2080.48 1148.92 2067.32 1147.46 2049.31 1147.46L2033.41 1147.46 2033.41 1309.75 1955 1309.75Z" fill="#AFABAB" fill-rule="evenodd" fill-opacity="0.101961"/><path d="M1688 1237.5C1688 955.007 1917.23 726 2200 726 2482.77 726 2712 955.007 2712 1237.5 2712 1519.99 2482.77 1749 2200 1749 1917.23 1749 1688 1519.99 1688 1237.5ZM1774.15 1237.5C1774.15 1472.42 1964.81 1662.85 2200 1662.85 2435.19 1662.85 2625.85 1472.42 2625.85 1237.5 2625.85 1002.58 2435.19 812.147 2200 812.147 1964.81 812.147 1774.15 1002.58 1774.15 1237.5Z" fill="#AFABAB" fill-rule="evenodd" fill-opacity="0.101961"/></g></svg>