<svg width="1357" height="1348" xmlns="http://www.w3.org/2000/svg" xmlns:xlink="http://www.w3.org/1999/xlink" overflow="hidden"><defs><clipPath id="clip0"><rect x="1521" y="563" width="1357" height="1348"/></clipPath></defs><g clip-path="url(#clip0)" transform="translate(-1521 -563)"><path d="M1887.12 790.296 1887.12 966.24 1990.79 966.24C2058.01 966.24 2099.99 963.402 2116.71 957.727 2133.44 952.051 2146.54 942.276 2156 928.403 2165.47 914.529 2170.21 897.187 2170.21 876.376 2170.21 853.043 2163.97 834.203 2151.51 819.856 2139.04 805.51 2121.45 796.445 2098.72 792.661 2087.36 791.084 2053.28 790.296 1996.47 790.296ZM1747 673 2041.92 673C2116.08 673 2169.97 679.228 2203.58 691.682 2237.19 704.137 2264.09 726.288 2284.29 758.134 2304.49 789.981 2314.59 826.399 2314.59 867.39 2314.59 919.416 2299.28 962.378 2268.67 996.274 2238.06 1030.17 2192.3 1051.53 2131.39 1060.36 2161.68 1078.02 2186.7 1097.41 2206.42 1118.54 2226.14 1139.66 2252.73 1177.18 2286.18 1231.1L2340.91 1318.46 2469.33 1108.63 2631.7 1108.63 2415.83 1445.38 2653 1802 2484 1802 2330.15 1562.21 2175.83 1802 2007.78 1802 2244.94 1440.18 2056.4 1149.32 2040.26 1127.83C2035.53 1121.83 2031.5 1117.08 2028.19 1113.57 2014.94 1099.54 2000.89 1089.92 1986.06 1084.72 1971.23 1079.52 1947.71 1076.91 1915.52 1076.91L1887.12 1076.91 1887.12 1366.37 1747 1366.37Z" fill="#595959" fill-rule="evenodd" fill-opacity="1"/></g></svg>