<svg width="1118" height="1118" xmlns="http://www.w3.org/2000/svg" xmlns:xlink="http://www.w3.org/1999/xlink" overflow="hidden"><defs><clipPath id="clip0"><rect x="1622" y="678" width="1118" height="1118"/></clipPath></defs><g clip-path="url(#clip0)" transform="translate(-1622 -678)"><path d="M1791 796 1962.64 796 1962.64 980.8 2068.27 980.8 2068.27 1064.4 2156.29 1064.4 2156.29 1161.2 2239.91 1161.2 2239.91 1068.8 2327.93 1068.8 2327.93 980.8 2420.36 980.8 2420.36 796 2592 796 2592 980.8 2517.18 980.8 2517.18 1068.8 2420.36 1068.8 2420.36 1165.6 2327.93 1165.6 2327.93 1341.6 2420.36 1341.6 2420.36 1425.2 2517.18 1425.2 2517.18 1513.2 2592 1513.2 2592 1698 2420.36 1698 2420.36 1513.2 2327.93 1513.2 2327.93 1438.4 2239.91 1438.4 2239.91 1341.6 2156.29 1341.6 2156.29 1438.4 2068.27 1438.4 2068.27 1513.2 1962.64 1513.2 1962.64 1698 1791 1698 1791 1513.2 1874.62 1513.2 1874.62 1425.2 1962.64 1425.2 1962.64 1337.2 2063.87 1337.2 2063.87 1165.6 1962.64 1165.6 1962.64 1068.8 1874.62 1068.8 1874.62 980.8 1791 980.8Z" fill="#7F7F7F" fill-rule="evenodd" fill-opacity="1"/></g></svg>